<!--?xml version="1.0" standalone="no"?-->
<svg id="sw-js-blob-svg" viewBox="0 0 100 100" xmlns="http://www.w3.org/2000/svg" version="1.1">
    <defs>
        <linearGradient id="sw-gradient" x1="0" x2="1" y1="1" y2="0">
            <stop id="stop1" stop-color="rgba(255, 255, 255, 1)" offset="0%"></stop>
            <stop id="stop2" stop-color="rgba(116.941, 116.443, 115.621, 1)" offset="100%"></stop>
        </linearGradient>
    </defs>

    <path fill="url(#sw-gradient)"
        d="M27.3,-30.2C35.5,-25.7,42.1,-17.2,44.1,-7.5C46.2,2.1,43.5,12.9,37.6,20.4C31.7,27.9,22.4,32.1,14.2,32.2C5.9,32.3,-1.5,28.3,-7.7,24.5C-14,20.8,-19.2,17.4,-25.6,12C-32,6.6,-39.6,-0.9,-38.9,-7.2C-38.2,-13.6,-29.2,-18.8,-21.3,-23.2C-13.4,-27.7,-6.7,-31.4,1.4,-33.1C9.6,-34.8,19.2,-34.6,27.3,-30.2Z"
        width="100%" height="100%" transform="translate(50 50)" stroke-width="0"
        style="transition: all 0.3s ease 0s;" stroke="url(#sw-gradient)"></path>

</svg>